<?xml version="1.0" encoding="utf-8"?>
<!-- Generator: Adobe Illustrator 19.0.0, SVG Export Plug-In . SVG Version: 6.00 Build 0)  -->
<svg version="1.1" id="图层_1" xmlns="http://www.w3.org/2000/svg" xmlns:xlink="http://www.w3.org/1999/xlink" x="0px" y="0px"
	 viewBox="0 0 48 48" style="enable-background:new 0 0 48 48;" xml:space="preserve">
<style type="text/css">
	.st0{display:none;fill-rule:evenodd;clip-rule:evenodd;fill:url(#XMLID_3_);}
	.st1{display:none;opacity:0.14;fill-rule:evenodd;clip-rule:evenodd;}
	.st2{fill-rule:evenodd;clip-rule:evenodd;fill:url(#XMLID_11_);}
	.st3{fill-rule:evenodd;clip-rule:evenodd;fill:url(#XMLID_12_);}
	.st4{fill:#0CC7CF;}
	.st5{fill-rule:evenodd;clip-rule:evenodd;fill:url(#XMLID_17_);}
</style>
<linearGradient id="XMLID_3_" gradientUnits="userSpaceOnUse" x1="-16.02" y1="42.6235" x2="16.1496" y2="2.4301">
	<stop  offset="0" style="stop-color:#76C188"/>
	<stop  offset="1" style="stop-color:#4AB1A0"/>
</linearGradient>
<path id="XMLID_9_" class="st0" d="M-16.9,8.1c-7.2,7.2-10.5,16.8-9.9,26.2C-20.1,43.5-9.2,49.5,3,49.5c1.4,0,2.7-0.1,3.9-0.2
	c-4.3-0.1-8.5-1.7-11.8-5c-6.6-6.6-6.6-17.4,0-24.1c6.6-6.6,17.4-6.6,24.1,0c2.4,2.4,4,5.4,4.6,8.6c0.7-5.2,0.8-11,0.8-17.1
	c0-3,0-6-0.1-8.8C11.4-4.8-5.7-3.1-16.9,8.1z"/>
<g id="XMLID_1_">
	<path id="XMLID_13_" class="st1" d="M17,12.9C20.8,9,27.2,9,31,12.9c3.9,3.9,3.9,10.2,0,14.1c-3.9,3.9-10.2,3.9-14.1,0
		C13.1,23.1,13.1,16.8,17,12.9z"/>
	<linearGradient id="XMLID_11_" gradientUnits="userSpaceOnUse" x1="24" y1="0.4757" x2="24" y2="48.2289">
		<stop  offset="0" style="stop-color:#36CEE8"/>
		<stop  offset="1" style="stop-color:#3879F4"/>
	</linearGradient>
	<path id="XMLID_4_" class="st2" d="M38.1,5.8c-7.8-7.8-20.4-7.8-28.2,0c-7.8,7.8-7.8,20.4,0,28.2c3.8,3.8,14,14,14,14
		s10.3-10,14.2-14C45.9,26.3,45.9,13.6,38.1,5.8z M31,27c-3.9,3.9-10.2,3.9-14.1,0c-3.9-3.9-3.9-10.2,0-14.1C20.8,9,27.2,9,31,12.9
		C34.9,16.8,34.9,23.1,31,27z"/>
	<linearGradient id="XMLID_12_" gradientUnits="userSpaceOnUse" x1="22.9793" y1="9.7621" x2="22.9793" y2="48.1842">
		<stop  offset="0" style="stop-color:#36CEE8"/>
		<stop  offset="1" style="stop-color:#3879F4"/>
	</linearGradient>
	<path id="XMLID_16_" class="st3" d="M23.9,48c0,0,10.3-10,14.2-14c1.6-1.6,2.9-3.4,3.8-5.3C40.7,17.9,31.5,9.4,20.3,9.4
		c-6.3,0-12,2.7-15.9,7C3.3,22.6,5.1,29.2,9.9,34C13.7,37.9,23.9,48,23.9,48z M17,12.9C20.8,9,27.2,9,31,12.9
		c3.9,3.9,3.9,10.2,0,14.1c-3.9,3.9-10.2,3.9-14.1,0C13.1,23.1,13.1,16.8,17,12.9z"/>
	<path id="XMLID_6_" class="st4" d="M34.4,23.4c0-1.8-0.2-3.6-0.7-5.3c0.6,3.1-0.3,6.5-2.7,8.9c-3.9,3.9-10.2,3.9-14.1,0
		c-3.9-3.9-3.9-10.2,0-14.1C20.8,9,27.2,9,31,12.9c0.9,0.9,1.6,2,2.1,3.2C30.5,8.5,23.7,2.9,15.5,1.9c-2,1-3.9,2.3-5.6,4
		c-7.8,7.8-7.8,20.4,0,28.2c3.8,3.8,13.6,13.6,13.9,13.9C27.9,37.8,34.4,32.7,34.4,23.4z"/>
	<linearGradient id="XMLID_17_" gradientUnits="userSpaceOnUse" x1="10.1957" y1="26.126" x2="24.7168" y2="7.983">
		<stop  offset="0" style="stop-color:#06FBCA"/>
		<stop  offset="1" style="stop-color:#1CEDED"/>
	</linearGradient>
	<path id="XMLID_7_" class="st5" d="M8.9,6.9C8.8,7.1,8.6,7.2,8.5,7.4C8.4,7.5,8.3,7.6,8.2,7.7C8.1,7.9,8,8.1,7.8,8.3
		C7.8,8.4,7.7,8.5,7.6,8.6C7.5,8.8,7.4,9,7.2,9.1C7.2,9.2,7.1,9.4,7,9.5C6.9,9.7,6.8,9.8,6.7,10c-0.1,0.1-0.1,0.2-0.2,0.3
		c-0.1,0.2-0.2,0.4-0.3,0.6c-0.1,0.1-0.1,0.2-0.2,0.3c-0.1,0.2-0.2,0.4-0.3,0.6c0,0.1-0.1,0.2-0.1,0.3c-0.1,0.2-0.2,0.5-0.3,0.7
		c0,0.1-0.1,0.2-0.1,0.2c-0.1,0.3-0.2,0.5-0.3,0.8c0,0.1,0,0.1,0,0.2c-0.1,0.3-0.2,0.6-0.3,1c0,0,0,0,0,0c-0.5,2-0.7,4.1-0.6,6.2
		C8.1,26.6,14.4,30,21.6,30c0.8,0,1.6-0.1,2.3-0.1c0,0,0,0,0,0c-0.9,0-1.9-0.2-2.8-0.4c0,0,0,0,0,0c-0.3-0.1-0.6-0.2-0.9-0.3
		c0,0-0.1,0-0.1-0.1c-0.3-0.1-0.5-0.2-0.7-0.4c-0.1,0-0.2-0.1-0.2-0.1c-0.2-0.1-0.4-0.2-0.6-0.4c-0.1-0.1-0.3-0.2-0.4-0.3
		c-0.1-0.1-0.3-0.2-0.4-0.3c-0.3-0.2-0.5-0.4-0.7-0.7c-3.9-3.9-3.9-10.2,0-14.1C20.8,9,27.2,9,31,12.9c0.2,0.2,0.4,0.4,0.6,0.7
		c0.1,0.1,0.1,0.1,0.1,0.2c0.1,0.2,0.3,0.4,0.4,0.6c0,0.1,0.1,0.1,0.1,0.2c0.3,0.5,0.6,1,0.8,1.6c0,0,0,0,0,0
		C30.5,8.5,23.7,2.9,15.5,1.9c0,0-0.1,0-0.1,0C15.4,2,15.3,2,15.3,2c-0.4,0.2-0.9,0.4-1.3,0.7c-0.1,0-0.1,0.1-0.2,0.1
		c-0.4,0.3-0.8,0.5-1.3,0.8c0,0-0.1,0.1-0.1,0.1c-0.4,0.3-0.8,0.6-1.3,1c0,0,0,0-0.1,0c-0.4,0.4-0.8,0.7-1.2,1.1
		C9.7,6.1,9.4,6.4,9.2,6.6C9.1,6.7,9,6.8,8.9,6.9z"/>
</g>
</svg>
